<svg xmlns="http://www.w3.org/2000/svg" viewBox="0 0 160 150" role="img" aria-labelledby="title">
  <title id="title">cushion</title>
  <path d="M27 20c16-5 24 9 39 6 10-2 18-5 29-2 15 4 25-10 39-3 8 4 8 15 4 25-5 12-2 24-2 35s-3 20 2 32c4 10 3 21-5 25-14 7-24-7-39-3-10 3-19 1-29-1-15-3-24 11-39 5-9-4-9-15-5-26 5-11 2-22 2-33s3-22-2-34c-4-10-3-21 6-26Z" fill="#fffaf1" stroke="#2b2420" stroke-width="4" stroke-linejoin="round"/>
  <path d="M34 34c5 1 8 4 10 8M31 40c4 1 7 4 9 8M125 34c-5 1-8 4-10 8M128 40c-4 1-7 4-9 8M34 119c5-1 8-4 10-8M31 113c4-1 7-4 9-8M125 119c-5-1-8-4-10-8M128 113c-4-1-7-4-9-8" fill="none" stroke="#2b2420" stroke-width="3" stroke-linecap="round"/>
  <circle cx="61" cy="73" r="4.5" fill="#2b2420"/>
  <circle cx="99" cy="73" r="4.5" fill="#2b2420"/>
  <path d="M70 88c6 7 14 7 20 0" fill="none" stroke="#2b2420" stroke-width="4" stroke-linecap="round"/>
</svg>
